<svg xmlns="http://www.w3.org/2000/svg" viewBox="0 0 100 100" width="100" height="100">
  <!-- Circle border -->
  <circle cx="50" cy="50" r="48" fill="none" stroke="#1a1a1a" stroke-width="3"/>
  <!-- House shape -->
  <path d="M50 15 L75 40 L75 75 L25 75 L25 40 Z" fill="none" stroke="#1a1a1a" stroke-width="3" stroke-linejoin="round"/>
  <!-- Roof -->
  <path d="M35 35 L50 20 L65 35" fill="none" stroke="#1a1a1a" stroke-width="3" stroke-linecap="round" stroke-linejoin="round"/>
  <!-- Window -->
  <rect x="42" y="38" width="8" height="8" fill="#D4A853" stroke="#1a1a1a" stroke-width="2"/>
  <line x1="46" y1="38" x2="46" y2="46" stroke="#1a1a1a" stroke-width="1"/>
  <line x1="42" y1="42" x2="50" y2="42" stroke="#1a1a1a" stroke-width="1"/>
  <!-- Chair/Lounger -->
  <path d="M35 68 L35 55 Q35 50 40 50 L50 50 Q55 50 55 55 L55 68" fill="none" stroke="#D4A853" stroke-width="3" stroke-linecap="round"/>
  <path d="M38 68 L38 58 Q38 55 42 55 L48 55 Q52 55 52 58 L52 68" fill="#D4A853" stroke="#1a1a1a" stroke-width="2"/>
  <!-- Chair legs -->
  <line x1="38" y1="68" x2="38" y2="72" stroke="#D4A853" stroke-width="2"/>
  <line x1="52" y1="68" x2="52" y2="72" stroke="#D4A853" stroke-width="2"/>
  <!-- Moon accent -->
  <path d="M70 20 Q80 30 70 40" fill="none" stroke="#D4A853" stroke-width="2" stroke-linecap="round"/>
</svg>